<?xml version="1.0" encoding="UTF-8"?>
<svg width="114px" height="56px" viewBox="0 0 114 56" version="1.1" xmlns="http://www.w3.org/2000/svg" xmlns:xlink="http://www.w3.org/1999/xlink">
    <!-- Generator: Sketch 50.2 (55047) - http://www.bohemiancoding.com/sketch -->
    <title>logo_plink</title>
    <desc>Created with Sketch.</desc>
    <defs>
        <polygon id="path-1" points="0 0.0703279262 21.445005 0.0703279262 21.445005 34.6911037 0 34.6911037"></polygon>
    </defs>
    <g id="MVP_1" stroke="none" stroke-width="1" fill="none" fill-rule="evenodd">
        <g id="Login" transform="translate(-130.000000, -52.000000)">
            <g id="Background">
                <g transform="translate(-282.000000, -203.000000)" id="logo_plink">
                    <g transform="translate(411.500000, 254.920685)">
                        <g id="Group-5" transform="translate(0.203663, 0.000000)">
                            <path d="M31.6866819,39.0724376 C27.505367,39.0724376 23.9158297,35.7371037 23.9158297,31.6273955 L23.9158297,30.5625028 L25.7361721,9.67485297 C26.2271889,8.94906877 26.9166583,8.61149473 27.6542065,8.61149473 C28.7861025,8.61149473 30.0151789,9.33676745 30.752727,10.3515355 C30.752727,10.6415423 30.8023402,11.9959303 30.8023402,12.2854256 L30.8023402,12.6726128 C30.8023402,13.8812302 30.8023402,14.8479195 29.3267324,31.1916181 C29.3267324,32.0125368 29.5236506,33.4150035 30.4069694,33.7551349 C33.949451,33.7551349 35.5237736,33.3674362 37.2443782,33.3674362 C39.4099669,33.657443 39.4585571,34.0446302 39.4585571,34.5760536 C39.4585571,37.9604891 34.1453462,39.0724376 31.6866819,39.0724376" id="Fill-1" fill="#0D63F9"></path>
                            <path d="M49.4437416,14.9935878 C49.0990069,22.681581 47.5257073,30.4176528 47.181484,38.1537247 C47.1303365,39.2656732 46.197916,40.9100679 44.8691018,40.9100679 C43.3438809,40.9100679 41.4754597,38.9275876 41.4258466,37.3808847 L41.4258466,36.7517695 C41.4258466,29.0156976 42.4580048,21.3282159 44.1310422,13.3011143 C44.4271867,11.8986476 44.6716722,11.3181225 46.0511225,11.3181225 C47.9676224,11.3181225 49.4437416,12.9625173 49.4437416,14.7997385 L49.4437416,14.9935878 Z" id="Fill-3" fill="#0D63F9"></path>
                            <path d="M68.1348585,40.8620915 C65.3785153,40.8620915 62.9699756,38.4443453 61.9357715,36.1227565 C61.2468135,34.9632408 58.5917425,29.3549084 58.0506011,28.1447566 L56.3770522,34.5760536 C56.0333404,35.8818514 54.7541394,39.7496316 52.837128,39.7496316 C52.5911081,39.7496316 52.296498,39.6534741 52.0003535,39.4601363 C50.8203788,38.7829423 50.3769293,38.4919125 50.3769293,37.7676628 C50.3769293,36.9943113 50.8203788,35.7841595 55.0507954,16.7337309 C55.1981004,16.0084581 55.8860354,14.8970212 56.8210132,14.7522735 C60.5588786,14.8970212 60.5107998,19.3934052 61.0013051,21.4239642 L61.1982233,21.955899 C62.4769129,25.9198367 64.4926391,31.9649695 66.0674732,34.2870698 L70.3459685,15.2842084 C70.7398049,13.5426332 71.6742712,9.62728572 74.281775,9.62728572 C75.3144447,9.62728572 76.4453177,10.6415423 76.4453177,11.8511826 C76.4453177,16.0084581 72.8046328,26.8394702 71.7249073,31.7240644 C71.1336413,34.3341255 71.0349264,40.8620915 68.1348585,40.8620915" id="Fill-5" fill="#0D63F9"></path>
                            <path d="M101.284118,36.8002574 C94.4482439,36.8002574 86.5300866,34.1891733 82.1037748,28.7261 L81.0230264,37.4774514 C80.8752099,38.4922194 80.1857405,40.1361027 79.0047428,40.1361027 C76.3491603,40.1361027 75.857632,36.9946182 75.857632,35.1077839 C75.857632,32.1591257 78.3669324,16.9278871 78.8083361,13.7362779 C79.1525593,11.4162236 78.7602573,7.88499446 81.9068566,7.88499446 C83.4320775,7.88499446 85.0053772,9.67515986 85.0053772,11.1257053 C85.0053772,12.6724082 83.5788711,18.3308653 83.5788711,19.9256469 L83.5788711,20.6023294 C86.7280278,18.1850947 90.3170536,15.7192697 94.5965719,13.3976809 C95.9243631,12.5767622 96.1228157,12.4795818 97.5467644,12.4795818 C99.1215985,12.4795818 100.499003,13.5910188 100.499003,15.2364365 C100.44939,18.7651082 87.7596745,23.1162331 86.8753328,26.1139929 C91.0546018,30.8528165 98.0884173,31.77245 104.235334,31.77245 C105.565682,31.77245 106.893985,31.7233483 108.121016,31.6277023 C108.811508,31.9166862 108.908688,32.3524636 108.908688,32.9324772 C108.908688,36.3639685 103.400094,36.8002574 101.284118,36.8002574" id="Fill-7" fill="#0D63F9"></path>
                            <g id="Group-11" transform="translate(0.503484, 8.830918)">
                                <mask id="mask-2" fill="white">
                                    <use xlink:href="#path-1"></use>
                                </mask>
                                <g id="Clip-10"></g>
                                <path d="M7.6223708,17.9121392 C6.88482266,10.7080022 6.73700615,8.72552187 6.73700615,7.3706224 C6.73700615,6.98496963 6.7866193,6.59880538 6.7866193,6.2111067 C7.67249544,5.19582719 9.88718577,4.37337406 11.9013776,4.37337406 C13.7692873,4.37337406 15.4924494,5.05056805 15.9839776,6.8883007 C15.9839776,11.2389141 11.2139541,15.736321 7.6223708,17.9121392 M21.445005,6.69393988 C21.445005,1.42420444 14.9006718,0.0703279262 11.0170359,0.0703279262 C6.7866193,0.0703279262 4.57397488,1.37612571 0.735348796,3.69669154 C0.196253275,3.98669833 -0.000153442748,4.6158136 -0.000153442748,5.19582719 C-0.000153442748,5.92161139 0.639191341,6.93535647 1.27802465,7.32305515 L4.42564689,31.7895013 C4.62154213,33.1423549 6.83674393,34.6911037 7.96761699,34.6911037 C9.49130348,34.6911037 9.54040516,33.1423549 9.54040516,32.0309179 L8.1154335,23.956249 C15.0495113,18.5898447 21.445005,13.7052505 21.445005,6.69393988" id="Fill-9" fill="#0D63F9" mask="url(#mask-2)"></path>
                            </g>
                            <path d="M104.404428,1.50295254 C104.643798,1.67173956 104.778317,1.88604793 104.604926,2.20060556 C104.395733,2.57756325 104.231037,2.84455363 103.96865,3.30385892 C103.833109,3.53351157 103.704217,3.75907241 103.553843,4.01634475 C103.408073,4.264922 103.259745,4.52577467 103.094538,4.804529 C102.444452,5.92261516 101.698209,7.1849375 100.758628,8.75261091 C100.550969,9.08148986 100.142811,9.163326 99.7944961,8.94032253 C99.0206332,8.41145653 98.2370522,7.92606597 97.4943893,7.48517381 C97.1634645,7.27598019 97.1041333,6.89237332 97.3158843,6.5819075 C97.8381011,5.84589378 98.3240031,5.20808343 98.7960953,4.5907321 C99.2646072,3.97696111 99.6824829,3.43940002 100.088083,2.93559633 C100.892123,1.91724796 101.416386,1.27176546 101.994354,0.611961646 C102.274131,0.292289255 102.500715,0.339856507 102.753895,0.479489407 C103.316519,0.795581468 103.85766,1.13264404 104.404428,1.50295254" id="Fill-12" fill="#FB9C4B"></path>
                            <path d="M110.462961,7.90335644 C110.612824,8.14221565 110.654765,8.38260929 110.386751,8.59640619 C110.063499,8.85163263 109.820548,9.02962621 109.423131,9.33855761 C109.218541,9.49251184 109.022134,9.64493163 108.797084,9.81781046 C108.576127,9.98404011 108.350055,10.1604993 108.103523,10.346165 C107.119444,11.0965 105.998289,11.9399237 104.596845,12.9817999 C104.293028,13.1966198 103.900215,13.1163181 103.674654,12.7899965 C103.179034,12.0335237 102.660397,11.3133658 102.16222,10.6474243 C101.945866,10.3379814 102.032817,9.97585649 102.330496,9.7789383 C103.06344,9.31963301 103.724779,8.93449171 104.368727,8.56316026 C105.006537,8.19080586 105.571718,7.86908756 106.113882,7.57243158 C107.197188,6.96786716 107.895864,6.59090947 108.649268,6.21906655 C109.011904,6.03851558 109.196547,6.16638454 109.371472,6.38427324 C109.75559,6.8717097 110.110554,7.37142158 110.462961,7.90335644" id="Fill-14" fill="#FB9C4B"></path>
                            <path d="M114.078021,15.2623172 C114.132238,15.5349338 114.088251,15.7697012 113.764998,15.870462 C113.38088,15.9906588 113.097011,16.0663572 112.623384,16.2085475 C112.381967,16.2770852 112.148734,16.346646 111.880721,16.4249018 C111.621403,16.4990657 111.352878,16.5809019 111.061848,16.662738 C109.897218,17.0003121 108.576587,17.3752238 106.927078,17.8309488 C106.574159,17.9199456 106.2417,17.7066602 106.147077,17.3271451 C105.958342,16.4576362 105.732782,15.6116552 105.509778,14.8234709 C105.41669,14.4628805 105.623837,14.1616212 105.966526,14.0869457 C106.797163,13.9268538 107.53778,13.8092144 108.257938,13.6956667 C108.972981,13.5836535 109.603631,13.489542 110.204103,13.4097518 C111.40914,13.2414762 112.180446,13.1448073 113.000853,13.0711548 C113.397247,13.0353514 113.521024,13.2174368 113.605418,13.4793125 C113.787503,14.0644408 113.939923,14.6495692 114.078021,15.2623172" id="Fill-16" fill="#FB9C4B"></path>
                        </g>
                        <path d="M5.41569898,55.7916462 C4.43933793,55.7916462 3.69622984,55.601801 3.1863524,55.2221051 C2.67647497,54.8424091 2.42154008,54.1752391 2.42154008,53.2205749 L2.42154008,47.7312836 L3.51722866,47.7312836 L3.51722866,53.2097265 C3.51722866,53.7955431 3.67633696,54.2077783 3.99455834,54.4464443 C4.31277972,54.6851104 4.78648853,54.8044416 5.41569898,54.8044416 C6.05214173,54.8044416 6.52946664,54.6851104 6.84768802,54.4464443 C7.1659094,54.2077783 7.3250177,53.7955431 7.3250177,53.2097265 L7.3250177,47.7312836 L8.42070628,47.7312836 L8.42070628,53.2205749 C8.42070628,54.1752391 8.16396334,54.8424091 7.65046975,55.2221051 C7.13697617,55.601801 6.39206002,55.7916462 5.41569898,55.7916462 Z M9.86354372,49.9226608 L10.7314159,49.9226608 L10.9483839,50.5518681 C11.2304438,50.3421313 11.5504684,50.1685586 11.9084675,50.0311448 C12.2664665,49.893731 12.6262682,49.8250252 12.9878834,49.8250252 C13.6026293,49.8250252 14.0546415,50.0112542 14.3439337,50.3837178 C14.6332258,50.7561815 14.7778697,51.2353145 14.7778697,51.8211311 L14.7778697,55.7265557 L13.6930296,55.7265557 L13.6930296,51.9513119 C13.6930296,51.6041613 13.5953949,51.3275298 13.4001227,51.1214092 C13.2048505,50.9152885 12.9372593,50.8122297 12.597341,50.8122297 C12.2935842,50.8122297 12.0169527,50.8556229 11.7674382,50.9424105 C11.5179238,51.0291982 11.2449084,51.1593777 10.9483839,51.332953 L10.9483839,55.7265557 L9.86354372,55.7265557 L9.86354372,49.9226608 Z M17.4248798,55.7916462 C16.9909415,55.7916462 16.636564,55.6614666 16.3617364,55.4011037 C16.0869089,55.1407407 15.9494971,54.7863632 15.9494971,54.3379603 L15.9494971,53.8823274 C15.9494971,53.41946 16.1067974,53.04881 16.4214026,52.7703662 C16.7360078,52.4919225 17.1970603,52.3527028 17.8045739,52.3527028 L19.616257,52.3527028 L19.616257,51.7451923 C19.616257,51.5065262 19.5764799,51.313065 19.4969245,51.1648028 C19.4173692,51.0165405 19.2745333,50.9026335 19.0684127,50.8230781 C18.862292,50.7435228 18.56758,50.7037457 18.1842679,50.7037457 L16.40513,50.7037457 L16.40513,50.06369 C17.0415728,49.9190439 17.7575601,49.8431059 18.5531136,49.8358736 C19.2908086,49.8358736 19.8350313,49.9787094 20.1857981,50.2643854 C20.5365648,50.5500614 20.7119455,51.0183461 20.7119455,51.6692535 L20.7119455,55.7265557 L19.8549218,55.7265557 L19.670499,55.0756516 C19.6054082,55.1335101 19.4517241,55.2202964 19.2094419,55.3360133 C18.9671597,55.4517301 18.6851041,55.556597 18.3632665,55.6506169 C18.041429,55.7446369 17.7286366,55.7916462 17.4248798,55.7916462 Z M17.9456031,54.9997128 C18.1191784,54.9997128 18.328912,54.968976 18.5748104,54.9075014 C18.8207087,54.8460268 19.0503309,54.777321 19.2636839,54.7013818 C19.4770369,54.6254426 19.59456,54.5802414 19.616257,54.5657767 L19.616257,52.8951229 L18.0974807,52.9602133 C17.3959472,53.0036071 17.0451857,53.3145915 17.0451857,53.8931758 L17.0451857,54.1535375 C17.0451857,54.4500619 17.1319721,54.6652198 17.3055474,54.7990174 C17.4791227,54.932815 17.6924724,54.9997128 17.9456031,54.9997128 Z M25.2357291,48.9463046 C25.1778707,48.9463046 25.1308614,48.9300322 25.0946999,48.8974868 C25.0585384,48.8649414 25.0404579,48.8197402 25.0404579,48.7618818 L25.0404579,47.850616 C25.0404579,47.7204345 25.1055476,47.6553448 25.2357291,47.6553448 L26.0385108,47.6553448 C26.0963693,47.6553448 26.1397624,47.6734253 26.1686917,47.7095868 C26.1976209,47.7457483 26.2120853,47.7927576 26.2120853,47.850616 L26.2120853,48.7618818 C26.2120853,48.8848309 26.1542277,48.9463046 26.0385108,48.9463046 L25.2357291,48.9463046 Z M25.0838515,49.9226608 L26.1686917,49.9226608 L26.1686917,55.7265557 L25.0838515,55.7265557 L25.0838515,49.9226608 Z M29.5750898,55.7916462 C28.866324,55.7916462 28.3419899,55.5584078 28.0020716,55.0919242 C27.6621533,54.6254406 27.4921967,53.8859486 27.4921967,52.8734261 C27.4921967,52.1429634 27.5627106,51.5589636 27.7037405,51.1214092 C27.8447704,50.6838548 28.0743927,50.3620221 28.392614,50.1559014 C28.7108354,49.9497807 29.141151,49.846722 29.6835738,49.846722 C30.1826028,49.846722 30.7467141,49.9515888 31.3759245,50.1613256 L31.3759245,47.4492252 L32.4607647,47.4492252 L32.4607647,55.7265557 L31.5711958,55.7265557 L31.3759245,55.1515904 C31.1951169,55.3107011 30.9257176,55.4571531 30.5677186,55.5909507 C30.2097195,55.7247483 29.8788466,55.7916462 29.5750898,55.7916462 Z M29.9222387,54.9020772 C30.3706415,54.9020772 30.8551986,54.7574333 31.3759245,54.4681411 L31.3759245,50.9424105 C31.3325307,50.9279459 31.2168156,50.893593 31.0287757,50.8393507 C30.8407358,50.7851084 30.663547,50.7453314 30.497204,50.7200183 C30.330861,50.6947052 30.1681366,50.6820489 30.0090259,50.6820489 C29.654643,50.6820489 29.3762035,50.7453306 29.173699,50.8718959 C28.9711944,50.9984612 28.8229344,51.2154271 28.7289145,51.5228 C28.6348945,51.830173 28.5878853,52.2622966 28.5878853,52.8191841 C28.5878853,53.3399099 28.6312784,53.750337 28.7180661,54.0504777 C28.8048537,54.3506183 28.9458815,54.5675841 29.1411538,54.7013818 C29.336426,54.8351794 29.596785,54.9020772 29.9222387,54.9020772 Z M36.2360085,55.7916462 C35.6067981,55.7916462 35.1132007,55.7012437 34.7552017,55.5204361 C34.3972026,55.3396285 34.1404597,55.0358763 33.9849652,54.6091704 C33.8294706,54.1824644 33.7517245,53.5858083 33.7517245,52.8191841 C33.7517245,52.0380952 33.8294706,51.4342069 33.9849652,51.0075009 C34.1404597,50.580795 34.3953946,50.2806589 34.7497775,50.1070836 C35.1041604,49.9335083 35.5959497,49.846722 36.2251601,49.846722 C36.7748153,49.846722 37.2123631,49.9045795 37.5378168,50.0202964 C37.8632704,50.1360132 38.1019329,50.3348986 38.2538113,50.6169585 C38.4056897,50.8990183 38.4816277,51.2895569 38.4816277,51.7885859 C38.4816277,52.3020795 38.3333677,52.6727295 38.0368432,52.9005471 C37.7403188,53.1283646 37.3136192,53.2422717 36.7567318,53.2422717 L34.8365647,53.2422717 C34.843797,53.6834423 34.8926143,54.0251635 34.9830181,54.2674457 C35.0734219,54.5097279 35.2379544,54.6851086 35.4766204,54.7935932 C35.7152865,54.9020777 36.0588157,54.9563192 36.5072186,54.9563192 L38.3189017,54.9563192 L38.3189017,55.6072233 C37.921125,55.6650818 37.5703635,55.710283 37.2666067,55.7428283 C36.9628499,55.7753737 36.6193207,55.7916462 36.2360085,55.7916462 Z M36.6590962,52.5588224 C36.9556207,52.5588224 37.1707785,52.5027729 37.3045761,52.3906722 C37.4383737,52.2785715 37.5052716,52.0814941 37.5052716,51.7994343 C37.5052716,51.365496 37.409445,51.0653599 37.2177889,50.8990169 C37.0261329,50.7326739 36.6952599,50.6495037 36.2251601,50.6495037 C35.8563126,50.6495037 35.572449,50.7037452 35.3735606,50.8122297 C35.1746722,50.9207143 35.0336444,51.1105594 34.9504729,51.3817708 C34.8673014,51.6529822 34.8257163,52.0453288 34.8257163,52.5588224 L36.6590962,52.5588224 Z M40.9659117,55.7916462 C40.5319735,55.7916462 40.1775959,55.6614666 39.9027684,55.4011037 C39.6279408,55.1407407 39.4905291,54.7863632 39.4905291,54.3379603 L39.4905291,53.8823274 C39.4905291,53.41946 39.6478293,53.04881 39.9624346,52.7703662 C40.2770398,52.4919225 40.7380923,52.3527028 41.3456058,52.3527028 L43.1572889,52.3527028 L43.1572889,51.7451923 C43.1572889,51.5065262 43.1175118,51.313065 43.0379565,51.1648028 C42.9584011,51.0165405 42.8155653,50.9026335 42.6094446,50.8230781 C42.4033239,50.7435228 42.108612,50.7037457 41.7252999,50.7037457 L39.946162,50.7037457 L39.946162,50.06369 C40.5826047,49.9190439 41.2985921,49.8431059 42.0941455,49.8358736 C42.8318405,49.8358736 43.3760633,49.9787094 43.72683,50.2643854 C44.0775967,50.5500614 44.2529775,51.0183461 44.2529775,51.6692535 L44.2529775,55.7265557 L43.3959537,55.7265557 L43.2115309,55.0756516 C43.1464402,55.1335101 42.992756,55.2202964 42.7504738,55.3360133 C42.5081917,55.4517301 42.226136,55.556597 41.9042985,55.6506169 C41.582461,55.7446369 41.2696685,55.7916462 40.9659117,55.7916462 Z M41.486635,54.9997128 C41.6602103,54.9997128 41.869944,54.968976 42.1158423,54.9075014 C42.3617407,54.8460268 42.5913629,54.777321 42.8047158,54.7013818 C43.0180688,54.6254426 43.135592,54.5802414 43.1572889,54.5657767 L43.1572889,52.8951229 L41.6385127,52.9602133 C40.9369792,53.0036071 40.5862177,53.3145915 40.5862177,53.8931758 L40.5862177,54.1535375 C40.5862177,54.4500619 40.673004,54.6652198 40.8465793,54.7990174 C41.0201546,54.932815 41.2335044,54.9997128 41.486635,54.9997128 Z M48.6574286,47.7312836 L51.6298907,47.7312836 C53.0474223,47.7312836 53.7561775,48.4183422 53.7561775,49.7924799 C53.7561775,50.269812 53.6531187,50.6639667 53.446998,50.9749557 C53.2408774,51.2859448 52.9714781,51.4848302 52.6387921,51.5716178 C53.0076396,51.6656378 53.3330884,51.8717554 53.6151483,52.1899767 C53.8972081,52.5081981 54.0382359,52.9493621 54.0382359,53.5134818 C54.0382359,54.3162675 53.8465827,54.8858029 53.4632706,55.2221051 C53.0799585,55.5584072 52.5086151,55.7265557 51.7492231,55.7265557 L48.6574286,55.7265557 L48.6574286,47.7312836 Z M51.6624359,51.2027722 C51.9806573,51.2027722 52.2355922,51.083441 52.4272483,50.8447749 C52.6189043,50.6061089 52.7147309,50.2842762 52.7147309,49.8792672 C52.7147309,49.0981783 52.349505,48.7076398 51.6190423,48.7076398 L49.7531172,48.7076398 L49.7531172,51.2027722 L51.6624359,51.2027722 Z M51.7166779,54.7501996 C52.1289193,54.7501996 52.4453278,54.6435247 52.6659131,54.4301717 C52.8864984,54.2168188 52.9967894,53.8497848 52.9967894,53.3290589 C52.9967894,52.9312822 52.8756501,52.6184898 52.6333679,52.3906722 C52.3910857,52.1628546 52.0855254,52.0489475 51.7166779,52.0489475 L49.7531172,52.0489475 L49.7531172,54.7501996 L51.7166779,54.7501996 Z M56.4140359,55.7916462 C55.9800977,55.7916462 55.6257201,55.6614666 55.3508926,55.4011037 C55.076065,55.1407407 54.9386533,54.7863632 54.9386533,54.3379603 L54.9386533,53.8823274 C54.9386533,53.41946 55.0959535,53.04881 55.4105588,52.7703662 C55.725164,52.4919225 56.1862165,52.3527028 56.79373,52.3527028 L58.6054131,52.3527028 L58.6054131,51.7451923 C58.6054131,51.5065262 58.565636,51.313065 58.4860807,51.1648028 C58.4065253,51.0165405 58.2636895,50.9026335 58.0575688,50.8230781 C57.8514481,50.7435228 57.5567362,50.7037457 57.1734241,50.7037457 L55.3942862,50.7037457 L55.3942862,50.06369 C56.0307289,49.9190439 56.7467163,49.8431059 57.5422697,49.8358736 C58.2799647,49.8358736 58.8241874,49.9787094 59.1749542,50.2643854 C59.5257209,50.5500614 59.7011017,51.0183461 59.7011017,51.6692535 L59.7011017,55.7265557 L58.8440779,55.7265557 L58.6596551,55.0756516 C58.5945644,55.1335101 58.4408802,55.2202964 58.198598,55.3360133 C57.9563158,55.4517301 57.6742602,55.556597 57.3524227,55.6506169 C57.0305852,55.7446369 56.7177927,55.7916462 56.4140359,55.7916462 Z M56.9347592,54.9997128 C57.1083345,54.9997128 57.3180682,54.968976 57.5639665,54.9075014 C57.8098649,54.8460268 58.0394871,54.777321 58.25284,54.7013818 C58.466193,54.6254426 58.5837162,54.5802414 58.6054131,54.5657767 L58.6054131,52.8951229 L57.0866368,52.9602133 C56.3851033,53.0036071 56.0343419,53.3145915 56.0343419,53.8931758 L56.0343419,54.1535375 C56.0343419,54.4500619 56.1211282,54.6652198 56.2947035,54.7990174 C56.4682788,54.932815 56.6816286,54.9997128 56.9347592,54.9997128 Z M61.1764843,49.9226608 L62.0443565,49.9226608 L62.2613245,50.5518681 C62.5433844,50.3421313 62.863409,50.1685586 63.2214081,50.0311448 C63.5794071,49.893731 63.9392088,49.8250252 64.3008241,49.8250252 C64.9155699,49.8250252 65.3675821,50.0112542 65.6568743,50.3837178 C65.9461664,50.7561815 66.0908104,51.2353145 66.0908104,51.8211311 L66.0908104,55.7265557 L65.0059702,55.7265557 L65.0059702,51.9513119 C65.0059702,51.6041613 64.9083355,51.3275298 64.7130633,51.1214092 C64.5177911,50.9152885 64.2501999,50.8122297 63.9102816,50.8122297 C63.6065248,50.8122297 63.3298933,50.8556229 63.0803788,50.9424105 C62.8308644,51.0291982 62.557849,51.1593777 62.2613245,51.332953 L62.2613245,55.7265557 L61.1764843,55.7265557 L61.1764843,49.9226608 Z M69.7358734,55.7916462 C68.9837137,55.7916462 68.40333,55.5746803 67.9947049,55.140742 C67.5860797,54.7068038 67.3817702,53.9401911 67.3817702,52.8408809 C67.3817702,52.0670243 67.4757887,51.463136 67.6638286,51.0291978 C67.8518685,50.5952595 68.1176517,50.2915073 68.4611861,50.117932 C68.8047206,49.9443567 69.2404604,49.8575704 69.7684186,49.8575704 C70.4988813,49.8575704 71.1461628,49.919044 71.7102825,50.0419932 L71.7102825,50.6820489 L70.0721738,50.6820489 C69.6888617,50.6820489 69.3851095,50.7417145 69.1609081,50.8610475 C68.9367066,50.9803805 68.76675,51.1973464 68.6510332,51.5119516 C68.5353163,51.8265569 68.4774588,52.2731449 68.4774588,52.8517293 C68.4774588,53.415849 68.5371244,53.8497807 68.6564574,54.1535375 C68.7757904,54.4572942 68.9493631,54.6670279 69.1771807,54.7827448 C69.4049982,54.8984616 69.7069424,54.9563192 70.0830222,54.9563192 L71.7970697,54.9563192 L71.7970697,55.5746781 C71.5222422,55.6397689 71.2004095,55.6922023 70.8315619,55.7319799 C70.4627144,55.7717576 70.0974886,55.7916462 69.7358734,55.7916462 Z M75.2577099,55.7916462 C74.642964,55.7916462 74.1511747,55.7048598 73.7823272,55.5312845 C73.4134797,55.3577092 73.1404644,55.055765 72.9632729,54.625443 C72.7860815,54.1951209 72.6974871,53.5930406 72.6974871,52.8191841 C72.6974871,52.0236306 72.7878895,51.410702 72.9686971,50.9803799 C73.1495047,50.5500579 73.4225201,50.2535378 73.7877514,50.090811 C74.1529828,49.9280842 74.642964,49.846722 75.2577099,49.846722 C75.8724557,49.846722 76.362437,49.9298922 76.7276683,50.0962352 C77.0928997,50.2625782 77.3659151,50.5609063 77.5467227,50.9912283 C77.7275303,51.4215504 77.8179327,52.0308629 77.8179327,52.8191841 C77.8179327,53.6002729 77.7293383,54.2059693 77.5521469,54.6362914 C77.3749554,55.0666134 77.1037481,55.3667496 76.7385167,55.5367087 C76.3732854,55.7066679 75.879688,55.7916462 75.2577099,55.7916462 Z M75.2577099,54.9020772 C75.6193251,54.9020772 75.9031888,54.8532599 76.1093094,54.7556238 C76.3154301,54.6579877 76.4709223,54.4591023 76.5757907,54.1589617 C76.6806591,53.8588211 76.7330925,53.4086169 76.7330925,52.8083357 C76.7330925,52.2080544 76.6806591,51.7578502 76.5757907,51.4577096 C76.4709223,51.157569 76.3154301,50.9604917 76.1093094,50.8664717 C75.9031888,50.7724518 75.6193251,50.7254425 75.2577099,50.7254425 C74.8888624,50.7254425 74.6049987,50.7724518 74.4061103,50.8664717 C74.207222,50.9604917 74.0553459,51.157569 73.9504775,51.4577096 C73.8456091,51.7578502 73.7931756,52.2080544 73.7931756,52.8083357 C73.7931756,53.4158492 73.8456091,53.8696695 73.9504775,54.1698101 C74.0553459,54.4699507 74.207222,54.667028 74.4061103,54.761048 C74.6049987,54.8550679 74.8888624,54.9020772 75.2577099,54.9020772 Z M80.7578496,55.7374041 C80.2081945,55.7374041 79.8013835,55.5927602 79.5374044,55.3034681 C79.2734253,55.0141759 79.1414377,54.5332349 79.1414377,53.8606306 L79.1414377,47.4492252 L80.2262779,47.4492252 L80.2262779,53.7196014 C80.2262779,54.1463073 80.2859435,54.4392113 80.4052766,54.598322 C80.5246096,54.7574326 80.7144547,54.8550673 80.9748176,54.8912288 L81.5172377,54.9563192 L81.5172377,55.7374041 L80.7578496,55.7374041 Z M84.7609099,55.7916462 C84.146164,55.7916462 83.6543747,55.7048598 83.2855272,55.5312845 C82.9166797,55.3577092 82.6436643,55.055765 82.4664729,54.625443 C82.2892814,54.1951209 82.2006871,53.5930406 82.2006871,52.8191841 C82.2006871,52.0236306 82.2910895,51.410702 82.4718971,50.9803799 C82.6527047,50.5500579 82.9257201,50.2535378 83.2909514,50.090811 C83.6561828,49.9280842 84.146164,49.846722 84.7609099,49.846722 C85.3756557,49.846722 85.865637,49.9298922 86.2308683,50.0962352 C86.5960997,50.2625782 86.8691151,50.5609063 87.0499227,50.9912283 C87.2307303,51.4215504 87.3211327,52.0308629 87.3211327,52.8191841 C87.3211327,53.6002729 87.2325383,54.2059693 87.0553469,54.6362914 C86.8781554,55.0666134 86.6069481,55.3667496 86.2417167,55.5367087 C85.8764854,55.7066679 85.382888,55.7916462 84.7609099,55.7916462 Z M84.7609099,54.9020772 C85.1225251,54.9020772 85.4063888,54.8532599 85.6125094,54.7556238 C85.8186301,54.6579877 85.9741223,54.4591023 86.0789907,54.1589617 C86.1838591,53.8588211 86.2362925,53.4086169 86.2362925,52.8083357 C86.2362925,52.2080544 86.1838591,51.7578502 86.0789907,51.4577096 C85.9741223,51.157569 85.8186301,50.9604917 85.6125094,50.8664717 C85.4063888,50.7724518 85.1225251,50.7254425 84.7609099,50.7254425 C84.3920624,50.7254425 84.1081987,50.7724518 83.9093103,50.8664717 C83.710422,50.9604917 83.5585459,51.157569 83.4536775,51.4577096 C83.3488091,51.7578502 83.2963756,52.2080544 83.2963756,52.8083357 C83.2963756,53.4158492 83.3488091,53.8696695 83.4536775,54.1698101 C83.5585459,54.4699507 83.710422,54.667028 83.9093103,54.761048 C84.1081987,54.8550679 84.3920624,54.9020772 84.7609099,54.9020772 Z M88.6446377,49.9226608 L89.5125099,49.9226608 L89.7294779,50.5518681 C90.0549316,50.3276666 90.3858045,50.1504779 90.7221067,50.0202964 C91.0584088,49.8901149 91.4290588,49.8250252 91.8340679,49.8250252 C92.1812185,49.8250252 92.4813546,49.9009632 92.7344852,50.0528416 C92.9876159,50.20472 93.1865012,50.4108375 93.3311473,50.6712005 C93.6204395,50.4469991 93.973009,50.2499217 94.3888665,50.0799626 C94.804724,49.9100034 95.1970706,49.8250252 95.5659181,49.8250252 C96.1878962,49.8250252 96.6471407,50.0076381 96.9436651,50.3728694 C97.2401896,50.7381008 97.3884496,51.2316981 97.3884496,51.8536763 L97.3884496,55.7265557 L96.3036094,55.7265557 L96.3036094,51.9513119 C96.3036094,51.6041613 96.2041667,51.3275298 96.0052784,51.1214092 C95.80639,50.9152885 95.5369907,50.8122297 95.1970724,50.8122297 C94.9222449,50.8122297 94.6347651,50.8646631 94.3346245,50.9695315 C94.0344839,51.0744 93.7470041,51.2136197 93.4721765,51.387195 C93.530035,51.5824672 93.5589638,51.7741204 93.5589638,51.9621603 L93.5589638,55.7265557 L92.4741236,55.7265557 L92.4741236,51.9513119 C92.4741236,51.6041613 92.3764889,51.3275298 92.1812167,51.1214092 C91.9859445,50.9152885 91.7183533,50.8122297 91.378435,50.8122297 C91.0746782,50.8122297 90.7980467,50.8556229 90.5485323,50.9424105 C90.2990178,51.0291982 90.0260024,51.1593777 89.7294779,51.332953 L89.7294779,55.7265557 L88.6446377,55.7265557 L88.6446377,49.9226608 Z M101.825446,55.7916462 C101.167306,55.7916462 100.545337,55.5782964 99.9595208,55.1515904 L99.7642496,55.7265557 L98.8746806,55.7265557 L98.8746806,47.4492252 L99.9595208,47.4492252 L99.9595208,50.4108388 C100.241581,50.2517282 100.547141,50.1179325 100.876211,50.009448 C101.205281,49.9009634 101.503609,49.846722 101.771204,49.846722 C102.494434,49.846722 103.020577,50.0799603 103.349646,50.5464439 C103.678716,51.0129275 103.843249,51.7885805 103.843249,52.8734261 C103.843249,53.8280902 103.680524,54.5531178 103.355071,55.0485306 C103.029617,55.5439435 102.519747,55.7916462 101.825446,55.7916462 Z M101.445752,54.8912288 C102.320861,54.8912288 102.758408,54.2005541 102.758408,52.8191841 C102.758408,52.2550643 102.702359,51.8211326 102.590258,51.5173758 C102.478158,51.2136191 102.32809,51.0075015 102.14005,50.8990169 C101.95201,50.7905324 101.720579,50.7362909 101.445752,50.7362909 C101.178157,50.7362909 100.926838,50.7742599 100.691788,50.8501991 C100.456738,50.9261383 100.212651,51.0328132 99.9595208,51.170227 L99.9595208,54.4789895 C100.198187,54.6019387 100.435041,54.7013814 100.670091,54.7773206 C100.905141,54.8532598 101.163692,54.8912288 101.445752,54.8912288 Z M105.318631,48.9463046 C105.260773,48.9463046 105.213764,48.9300322 105.177602,48.8974868 C105.141441,48.8649414 105.12336,48.8197402 105.12336,48.7618818 L105.12336,47.850616 C105.12336,47.7204345 105.18845,47.6553448 105.318631,47.6553448 L106.121413,47.6553448 C106.179271,47.6553448 106.222665,47.6734253 106.251594,47.7095868 C106.280523,47.7457483 106.294987,47.7927576 106.294987,47.850616 L106.294987,48.7618818 C106.294987,48.8848309 106.23713,48.9463046 106.121413,48.9463046 L105.318631,48.9463046 Z M105.166754,49.9226608 L106.251594,49.9226608 L106.251594,55.7265557 L105.166754,55.7265557 L105.166754,49.9226608 Z M108.931149,55.7916462 C108.497211,55.7916462 108.142833,55.6614666 107.868006,55.4011037 C107.593178,55.1407407 107.455766,54.7863632 107.455766,54.3379603 L107.455766,53.8823274 C107.455766,53.41946 107.613067,53.04881 107.927672,52.7703662 C108.242277,52.4919225 108.70333,52.3527028 109.310843,52.3527028 L111.122526,52.3527028 L111.122526,51.7451923 C111.122526,51.5065262 111.082749,51.313065 111.003194,51.1648028 C110.923639,51.0165405 110.780803,50.9026335 110.574682,50.8230781 C110.368561,50.7435228 110.073849,50.7037457 109.690537,50.7037457 L107.911399,50.7037457 L107.911399,50.06369 C108.547842,49.9190439 109.263829,49.8431059 110.059383,49.8358736 C110.797078,49.8358736 111.341301,49.9787094 111.692067,50.2643854 C112.042834,50.5500614 112.218215,51.0183461 112.218215,51.6692535 L112.218215,55.7265557 L111.361191,55.7265557 L111.176768,55.0756516 C111.111678,55.1335101 110.957993,55.2202964 110.715711,55.3360133 C110.473429,55.4517301 110.191373,55.556597 109.869536,55.6506169 C109.547698,55.7446369 109.234906,55.7916462 108.931149,55.7916462 Z M109.451872,54.9997128 C109.625448,54.9997128 109.835181,54.968976 110.08108,54.9075014 C110.326978,54.8460268 110.5566,54.777321 110.769953,54.7013818 C110.983306,54.6254426 111.100829,54.5802414 111.122526,54.5657767 L111.122526,52.8951229 L109.60375,52.9602133 C108.902217,53.0036071 108.551455,53.3145915 108.551455,53.8931758 L108.551455,54.1535375 C108.551455,54.4500619 108.638241,54.6652198 108.811817,54.7990174 C108.985392,54.932815 109.198742,54.9997128 109.451872,54.9997128 Z" id="Una-idea-Bancolombia" fill="#0D63F9"></path>
                    </g>
                </g>
            </g>
        </g>
    </g>
</svg>